<svg xmlns="http://www.w3.org/2000/svg" width="860" height="320" viewBox="0 0 860 320" role="img" aria-label="Per-Sample Delta: Best Run vs fpn_2">
<rect width="100%" height="100%" fill="#ffffff" rx="24" />
<text x="32" y="38" font-family="Space Grotesk, sans-serif" font-size="24" font-weight="700" fill="#122033">Per-Sample Delta: Best Run vs fpn_2</text>
<text x="32" y="62" font-family="Space Grotesk, sans-serif" font-size="13" fill="#4c5d73">Positive values mean the coarse+mid learned probe improved over the best single scale.</text>
<line x1="72" y1="250" x2="812" y2="250" stroke="#cfd9e4" stroke-width="1.5" />
<line x1="72" y1="80" x2="72" y2="250" stroke="#cfd9e4" stroke-width="1.5" />
<rect x="74.0" y="245.2" width="37.1" height="4.8" rx="4" fill="#005f73" opacity="0.92" />
<rect x="115.1" y="80.0" width="37.1" height="170.0" rx="4" fill="#005f73" opacity="0.92" />
<rect x="156.2" y="217.3" width="37.1" height="32.7" rx="4" fill="#005f73" opacity="0.92" />
<rect x="197.3" y="245.2" width="37.1" height="4.8" rx="4" fill="#005f73" opacity="0.92" />
<rect x="238.4" y="249.0" width="37.1" height="1.0" rx="4" fill="#005f73" opacity="0.92" />
<rect x="279.6" y="248.1" width="37.1" height="1.9" rx="4" fill="#005f73" opacity="0.92" />
<rect x="320.7" y="250.0" width="37.1" height="0.0" rx="4" fill="#005f73" opacity="0.92" />
<rect x="361.8" y="249.0" width="37.1" height="1.0" rx="4" fill="#005f73" opacity="0.92" />
<rect x="402.9" y="250.0" width="37.1" height="0.0" rx="4" fill="#005f73" opacity="0.92" />
<rect x="444.0" y="249.0" width="37.1" height="1.0" rx="4" fill="#005f73" opacity="0.92" />
<rect x="485.1" y="250.0" width="37.1" height="0.0" rx="4" fill="#005f73" opacity="0.92" />
<rect x="526.2" y="250.0" width="37.1" height="0.0" rx="4" fill="#005f73" opacity="0.92" />
<rect x="567.3" y="250.0" width="37.1" height="0.0" rx="4" fill="#005f73" opacity="0.92" />
<rect x="608.4" y="250.0" width="37.1" height="0.0" rx="4" fill="#005f73" opacity="0.92" />
<rect x="649.6" y="250.0" width="37.1" height="0.0" rx="4" fill="#005f73" opacity="0.92" />
<rect x="690.7" y="250.0" width="37.1" height="0.0" rx="4" fill="#005f73" opacity="0.92" />
<rect x="731.8" y="250.0" width="37.1" height="0.0" rx="4" fill="#005f73" opacity="0.92" />
<rect x="772.9" y="249.0" width="37.1" height="1.0" rx="4" fill="#005f73" opacity="0.92" />
<line x1="152.7" y1="74" x2="152.7" y2="254" stroke="#122033" stroke-width="2" stroke-dasharray="6 4" />
<text x="152.7" y="68" text-anchor="middle" font-family="Space Grotesk, sans-serif" font-size="12" font-weight="700" fill="#122033">mean Δ +0.0092</text>
<text x="72" y="272" font-family="Space Grotesk, sans-serif" font-size="12" fill="#4c5d73">-0.053</text>
<text x="812" y="272" text-anchor="end" font-family="Space Grotesk, sans-serif" font-size="12" fill="#4c5d73">+0.515</text>
<text x="72" y="68" font-family="Space Grotesk, sans-serif" font-size="12" fill="#4c5d73">count</text>
</svg>